<?xml version="1.0" encoding="utf-8"?>
<!-- Generator: Adobe Illustrator 17.0.0, SVG Export Plug-In . SVG Version: 6.00 Build 0)  -->
<!DOCTYPE svg PUBLIC "-//W3C//DTD SVG 1.1//EN" "http://www.w3.org/Graphics/SVG/1.1/DTD/svg11.dtd">
<svg version="1.1" id="Layer_1" xmlns="http://www.w3.org/2000/svg" xmlns:xlink="http://www.w3.org/1999/xlink" x="0px" y="0px"
	 width="100px" height="100px" viewBox="0 0 100 100" enable-background="new 0 0 100 100" xml:space="preserve">
<g>
	<g>
		<g>
			
				<rect x="42.75" y="76.892" transform="matrix(0.7071 0.7071 -0.7071 0.7071 74.142 -10.7107)" fill="#57404C" stroke="#57404C" stroke-width="4" stroke-linecap="round" stroke-linejoin="round" stroke-miterlimit="10" width="14.5" height="14.5"/>
		</g>
		<g>
			<path fill="#57404C" d="M12,83.605c-1.104,0-2-0.896-2-2v-76c0-1.104,0.896-2,2-2h76c1.104,0,2,0.896,2,2v76c0,1.104-0.896,2-2,2
				H12z"/>
			<path fill="#57404C" d="M88,5.605v76H12v-76H88 M88,1.605H12c-2.209,0-4,1.791-4,4v76c0,2.209,1.791,4,4,4h76
				c2.209,0,4-1.791,4-4v-76C92,3.396,90.209,1.605,88,1.605L88,1.605z"/>
		</g>
	</g>
	<g>
		<path fill="#FFFFFF" d="M19.369,37.559c0,0,3.335-13.101,16.542-17.953c13.131-4.824,23.716,8.977,19.495,21.973l6.905,3.55
			c0,0,5.154-17.216-12.264-26.595c0,0-15.275-7.906-29.076,12.662c-0.939,1.206-13.024,23.998,7.034,33.698
			c16.347,7.905,29.611-8.71,29.947-9.848l-6.561-3.419c0,0-10.139,11.842-19.367,10.386C24.389,60.807,15.08,55.647,19.369,37.559z
			"/>
		<path fill="#FFFFFF" d="M52.895,25.333"/>
		<path fill="#FFFFFF" d="M26.487,38.476c0.669-2.233,7.973-20.681,26.407-13.141c0,0-6.733-11.49-21.204-3.048
			s-13.241,24.2-12.73,27.266c0.512,3.067,2.881,10.049,12.595,12.059C31.556,61.611,21.12,56.394,26.487,38.476z"/>
		<path fill="#FFFFFF" d="M55.34,31.531c0,0-9.112-3.35-12.394-1.139c0,0-2.546,3.35,15.208,12.93
			c17.753,9.581,23.314,5.829,23.314,5.829c2.077-1.943-8.107-9.111-12.171-11.3c-3.17-1.707-4.444-2.367-6.387-3.171l-0.201-0.736
			c0,0,11.367,5.07,15.499,8.933c0,0,4.824,3.64,5.247,6.387c0.424,2.747-2.925,9.134-7.213,9.737c0,0-9.536,0.156-17.016-3.707
			c0,0-17.772-7.634-21.238-15.788c-1.139-2.679,2.164-9.29,3.618-9.982c1.412-0.671,3.221-1.609,13.599,1.474L55.34,31.531z"/>
		<path fill="#FFFFFF" d="M55.54,39.235c0,0,0.938-4.02,0-7.369c0,0-9.604-3.056-12.193-1.206c-1.406,1.004,5.359,6.431,5.359,6.431
			S52.786,37.922,55.54,39.235z"/>
		<path fill="#FFFFFF" d="M63.111,42.384c0,0,0.401-3.416-0.067-7.236c0,0,14.109,6.414,18.29,13.064
			c1.01,1.607-6.891,1.27-7.833,0.736C73.5,48.948,67.264,44.461,63.111,42.384z"/>
	</g>
</g>
</svg>
