<?xml version="1.0" encoding="utf-8"?>
<!-- Generator: Adobe Illustrator 17.0.0, SVG Export Plug-In . SVG Version: 6.00 Build 0)  -->
<!DOCTYPE svg PUBLIC "-//W3C//DTD SVG 1.1//EN" "http://www.w3.org/Graphics/SVG/1.1/DTD/svg11.dtd">
<svg version="1.1" id="Layer_1" xmlns="http://www.w3.org/2000/svg" xmlns:xlink="http://www.w3.org/1999/xlink" x="0px" y="0px"
	 width="100px" height="100px" viewBox="0 0 100 100" enable-background="new 0 0 100 100" xml:space="preserve">
<g>
	<g>
		<g>
			
				<rect x="42.75" y="76.891" transform="matrix(-0.7071 -0.7071 0.7071 -0.7071 25.8589 178.9933)" fill="#C1971F" stroke="#C1971F" stroke-width="4" stroke-linecap="round" stroke-linejoin="round" stroke-miterlimit="10" width="14.5" height="14.5"/>
		</g>
		<g>
			<path fill="#C1971F" d="M12,83.605c-1.104,0-2-0.896-2-2v-76c0-1.104,0.896-2,2-2h76c1.104,0,2,0.896,2,2v76c0,1.104-0.896,2-2,2
				H12z"/>
			<path fill="#C1971F" d="M88,5.605v76H12v-76L88,5.605 M88,1.605H12c-2.209,0-4,1.791-4,4v76c0,2.209,1.791,4,4,4h76
				c2.209,0,4-1.791,4-4v-76C92,3.396,90.209,1.605,88,1.605L88,1.605z"/>
		</g>
	</g>
	<g>
		<path fill="#FFFFFF" d="M35.485,13.001c-3.849,0-6.967,5.199-6.967,11.612c0,5.053,1.94,9.341,4.645,10.937v33.187
			c0,1.277,1.045,2.322,2.322,2.322s2.322-1.045,2.322-2.322V35.549c2.704-1.596,4.645-5.884,4.645-10.937
			C42.452,18.2,39.334,13.001,35.485,13.001z"/>
		<path fill="#FFFFFF" d="M56.677,13.001c-0.479,0-0.871,0.392-0.871,0.871v12.773c0,0.479-0.261,0.871-0.581,0.871
			c-0.319,0-0.581-0.392-0.581-0.871V13.872c0-0.479-0.392-0.871-0.871-0.871s-0.871,0.392-0.871,0.871v12.773
			c0,0.479-0.261,0.871-0.581,0.871c-0.319,0-0.581-0.392-0.581-0.871V13.872c0-0.479-0.392-0.871-0.871-0.871
			s-0.871,0.392-0.871,0.871v12.773c0,0.479-0.261,0.871-0.581,0.871c-0.319,0-0.581-0.392-0.581-0.871V13.872
			c0-0.479-0.392-0.871-0.871-0.871s-0.871,0.392-0.871,0.871c0,0,0,9.824,0,12.482c0,4.899,0.808,8.066,2.903,9.292v33.091
			c0,1.277,1.045,2.322,2.322,2.322s2.322-1.045,2.322-2.322V35.646c2.095-1.226,2.903-4.393,2.903-9.292c0-3.732,0-12.482,0-12.482
			C57.548,13.393,57.156,13.001,56.677,13.001z"/>
		<path fill="#FFFFFF" d="M69.159,13.001c-3.849,0-6.967,6.239-6.967,13.934c0,6.066,1.939,11.225,4.645,13.138v28.664
			c0,1.277,1.045,2.322,2.322,2.322s2.322-1.045,2.322-2.322V15.323C71.481,14.046,70.436,13.001,69.159,13.001z"/>
	</g>
</g>
</svg>
