<?xml version="1.0" encoding="utf-8"?>
<!-- Generator: Adobe Illustrator 17.0.0, SVG Export Plug-In . SVG Version: 6.00 Build 0)  -->
<!DOCTYPE svg PUBLIC "-//W3C//DTD SVG 1.1//EN" "http://www.w3.org/Graphics/SVG/1.1/DTD/svg11.dtd">
<svg version="1.1" id="Layer_1" xmlns="http://www.w3.org/2000/svg" xmlns:xlink="http://www.w3.org/1999/xlink" x="0px" y="0px"
	 width="100px" height="100px" viewBox="0 0 100 100" enable-background="new 0 0 100 100" xml:space="preserve">
<g>
	<g>
		<g>
			
				<rect x="42.75" y="76.892" transform="matrix(0.7071 0.7071 -0.7071 0.7071 74.142 -10.7107)" fill="#BF3017" stroke="#BF3017" stroke-width="4" stroke-linecap="round" stroke-linejoin="round" stroke-miterlimit="10" width="14.5" height="14.5"/>
		</g>
		<g>
			<path fill="#BF3017" d="M12,83.605c-1.104,0-2-0.896-2-2v-76c0-1.104,0.896-2,2-2h76c1.104,0,2,0.896,2,2v76c0,1.104-0.896,2-2,2
				H12z"/>
			<path fill="#BF3017" d="M88,5.605v76H12v-76H88 M88,1.605H12c-2.209,0-4,1.791-4,4v76c0,2.209,1.791,4,4,4h76
				c2.209,0,4-1.791,4-4v-76C92,3.396,90.209,1.605,88,1.605L88,1.605z"/>
		</g>
	</g>
	<g>
		<path fill="#FFFFFF" d="M50.495,29.27c2.096,0,3.796-1.699,3.796-3.796s-1.7-3.796-3.796-3.796c-2.096,0-3.795,1.699-3.795,3.796
			S48.399,29.27,50.495,29.27"/>
		<path fill="#FFFFFF" d="M60.791,25.475c0,2.096,1.699,3.796,3.795,3.796c2.096,0,3.795-1.699,3.795-3.796
			s-1.699-3.796-3.795-3.796C62.49,21.679,60.791,23.378,60.791,25.475"/>
		<path fill="#FFFFFF" d="M77.704,31.666l0.273,2.825l-3.127,1.285l-4.787-4.926c-0.053-0.065-0.114-0.125-0.182-0.184
			c-0.31-0.301-0.724-0.429-1.123-0.384c-0.042-0.001-0.084-0.003-0.127-0.003h-5.87v-0.093h-5.926l1.681,3.232h0.638l0.352,2.595
			c0.256,0.769,0.981,1.331,1.835,1.331c0.576,0,1.119-0.252,1.487-0.696c0.138-0.165,0.385-0.187,0.55-0.047
			c0.167,0.138,0.188,0.385,0.05,0.551c-0.518,0.622-1.279,0.979-2.087,0.979c-0.607,0-1.169-0.2-1.621-0.537l0.913,6.684
			l-2.6,5.451c-0.019,0.041-0.457,0.958-0.05,1.601c0.24,0.381,0.724,0.554,1.436,0.554h1.589v13.256
			c0,1.02,0.826,1.847,1.847,1.847c1.019,0,1.846-0.827,1.846-1.847V51.888h0.276v4.699c0,0.625,0.316,1.207,0.838,1.548
			c0.305,0.199,0.656,0.299,1.007,0.299c0.255,0,0.508-0.052,0.747-0.158l6.107-2.7c0.933-0.413,1.356-1.501,0.943-2.435
			c-0.413-0.933-1.501-1.356-2.435-0.943l-3.511,1.553v-1.864h1.304c0.044,0,1.076,0.012,1.483-0.633
			c0.24-0.381,0.205-0.89-0.1-1.532l-2.559-5.361l0.927-6.79c-0.456,0.344-1.021,0.556-1.635,0.556c-0.81,0-1.571-0.352-2.089-0.973
			c-0.138-0.167-0.116-0.413,0.05-0.55s0.413-0.116,0.55,0.05c0.369,0.444,0.911,0.699,1.489,0.699c0.881,0,1.624-0.593,1.856-1.4
			l0.149-1.089l3.419,3.519c0.266,0.275,0.627,0.421,0.994,0.421c0.176,0,0.355-0.035,0.524-0.104l3.225-1.298l0.078,0.819h3.367
			l0.631-6.556h-4.63V31.666z"/>
		<path fill="#FFFFFF" d="M80.629,28.204c0.204,0,0.372,0.167,0.372,0.373c0,0.205-0.168,0.372-0.372,0.372
			c-0.205,0-0.373-0.167-0.373-0.372C80.256,28.37,80.424,28.204,80.629,28.204 M80.629,29.472c0.493,0,0.896-0.401,0.896-0.896
			s-0.402-0.896-0.896-0.896c-0.495,0-0.897,0.401-0.897,0.896C79.733,29.069,80.134,29.472,80.629,29.472"/>
		<path fill="#FFFFFF" d="M79.078,29.995c0.073,0,0.132,0.059,0.132,0.131c0,0.073-0.059,0.131-0.132,0.131s-0.13-0.059-0.13-0.131
			C78.948,30.054,79.006,29.995,79.078,29.995 M79.078,30.781c0.36,0,0.654-0.293,0.654-0.655c0-0.361-0.293-0.654-0.654-0.654
			s-0.654,0.293-0.654,0.654C78.424,30.487,78.718,30.781,79.078,30.781"/>
		<path fill="#FFFFFF" d="M80.412,30.81c0,0.289,0.234,0.524,0.524,0.524c0.288,0,0.522-0.235,0.522-0.524
			c0-0.289-0.234-0.524-0.522-0.524C80.647,30.287,80.412,30.522,80.412,30.81"/>
		<path fill="#FFFFFF" d="M55.566,51.888h0.319c0.044,0,1.076,0.012,1.483-0.633c0.24-0.381,0.207-0.89-0.1-1.532l-2.559-5.361
			l0.946-6.931c-0.48,0.43-1.113,0.697-1.806,0.697c-0.81,0-1.571-0.352-2.089-0.973c-0.138-0.167-0.116-0.413,0.05-0.55
			c0.167-0.139,0.413-0.116,0.55,0.05c0.369,0.444,0.911,0.699,1.489,0.699c0.91,0,1.674-0.633,1.878-1.483l0.113,0.216l0.359,0.689
			l3.336,6.393l-1.113-8.058c-0.004-0.025-0.006-0.049-0.006-0.074l-1.583-3.033c0.001,0.036,0.003,0.073,0.003,0.109
			c0,0.68-0.253,1.326-0.703,1.822c-0.085,0.094-0.176,0.184-0.276,0.267c-0.073,0.061-0.162,0.09-0.249,0.09
			c-0.113,0-0.224-0.047-0.301-0.141c-0.138-0.166-0.116-0.412,0.05-0.55c0.443-0.369,0.697-0.911,0.697-1.488
			c0-0.793-0.48-1.475-1.164-1.773c-0.065-0.029-0.132-0.043-0.201-0.064c-0.047-0.002-0.097,0.006-0.149,0.006h-7.817
			c0,0-0.036-0.006-0.095-0.004c-0.016-0.002-0.032-0.006-0.047-0.008c-0.177-0.023-0.355-0.012-0.525,0.032
			c-0.305,0.113-0.574,0.299-0.785,0.54c-0.188,0.215-0.33,0.47-0.409,0.753c-0.046,0.166-0.073,0.339-0.073,0.52
			c0,0.313,0.076,0.615,0.215,0.885c0.118,0.229,0.281,0.434,0.484,0.603c0.166,0.138,0.188,0.384,0.05,0.55
			c-0.077,0.093-0.188,0.141-0.3,0.141c-0.019,0-0.039-0.001-0.059-0.004c-0.068-0.01-0.135-0.038-0.191-0.085
			c-0.396-0.33-0.676-0.759-0.833-1.235l-0.784,1.521v5.99l1.808-3.485c-0.001-0.003-0.003-0.006-0.005-0.007l0.29-0.567
			l0.124-0.247v0.001c0.277,0.695,0.988,1.184,1.789,1.184c0.576,0,1.121-0.255,1.491-0.699c0.138-0.165,0.386-0.188,0.551-0.05
			c0.166,0.138,0.19,0.385,0.051,0.55c-0.518,0.624-1.279,0.979-2.088,0.979c-0.675,0-1.292-0.247-1.767-0.657l0.93,6.804
			l-2.6,5.451c-0.019,0.041-0.457,0.958-0.05,1.601c0.24,0.381,0.722,0.554,1.434,0.554h1.552v13.256
			c0,1.02,0.827,1.847,1.847,1.847c1.02,0,1.847-0.827,1.847-1.847V51.888h0.823l2.409,4.621l-2.327,6.188
			c-0.359,0.955,0.123,2.025,1.078,2.384c0.214,0.081,0.434,0.121,0.651,0.121c0.747,0,1.45-0.456,1.727-1.196l2.619-6.953
			c0.185-0.492,0.152-1.059-0.093-1.525L55.566,51.888z"/>
		<path fill="#FFFFFF" d="M35.046,17.625c0.205,0,0.373,0.167,0.373,0.372c0,0.205-0.167,0.373-0.373,0.373
			s-0.372-0.167-0.372-0.373C34.674,17.792,34.841,17.625,35.046,17.625 M35.046,18.893c0.494,0,0.896-0.401,0.896-0.896
			s-0.401-0.896-0.896-0.896c-0.494,0-0.896,0.402-0.896,0.896C34.15,18.492,34.553,18.893,35.046,18.893"/>
		<path fill="#FFFFFF" d="M45.197,19.903c-0.205,0-0.373-0.167-0.373-0.372c0-0.205,0.167-0.373,0.373-0.373
			c0.205,0,0.372,0.167,0.372,0.373C45.569,19.736,45.402,19.903,45.197,19.903 M46.093,19.531c0-0.494-0.401-0.896-0.896-0.896
			c-0.494,0-0.896,0.401-0.896,0.896c0,0.494,0.401,0.896,0.896,0.896C45.69,20.427,46.093,20.024,46.093,19.531"/>
		<path fill="#FFFFFF" d="M55.011,19.417c-0.205,0-0.372-0.167-0.372-0.372c0-0.205,0.167-0.372,0.372-0.372
			s0.372,0.167,0.372,0.372C55.383,19.249,55.217,19.417,55.011,19.417 M55.907,19.044c0-0.494-0.401-0.896-0.896-0.896
			c-0.493,0-0.896,0.401-0.896,0.896s0.402,0.896,0.896,0.896C55.506,19.94,55.907,19.538,55.907,19.044"/>
		<path fill="#FFFFFF" d="M63.696,17.369c0.205,0,0.372,0.167,0.372,0.372c0,0.205-0.167,0.372-0.372,0.372
			c-0.205,0-0.373-0.167-0.373-0.372C63.323,17.535,63.491,17.369,63.696,17.369 M63.696,18.637c0.493,0,0.896-0.401,0.896-0.896
			s-0.402-0.896-0.896-0.896c-0.495,0-0.896,0.401-0.896,0.896S63.201,18.637,63.696,18.637"/>
		<path fill="#FFFFFF" d="M36.596,19.417c0.073,0,0.131,0.059,0.131,0.131c0,0.072-0.059,0.131-0.131,0.131
			c-0.072,0-0.131-0.059-0.131-0.131C36.465,19.475,36.524,19.417,36.596,19.417 M36.596,20.202c0.361,0,0.654-0.293,0.654-0.654
			s-0.293-0.654-0.654-0.654s-0.654,0.293-0.654,0.654C35.942,19.908,36.235,20.202,36.596,20.202"/>
		<path fill="#FFFFFF" d="M46.747,20.95c0.073,0,0.131,0.059,0.131,0.13c0,0.073-0.059,0.131-0.131,0.131
			c-0.072,0-0.13-0.059-0.13-0.131C46.616,21.009,46.675,20.95,46.747,20.95 M46.747,21.735c0.361,0,0.655-0.293,0.655-0.654
			s-0.293-0.654-0.655-0.654c-0.361,0-0.654,0.293-0.654,0.654C46.093,21.441,46.386,21.735,46.747,21.735"/>
		<path fill="#FFFFFF" d="M56.562,20.726c-0.073,0-0.132-0.059-0.132-0.131c0-0.073,0.059-0.131,0.132-0.131
			c0.071,0,0.13,0.059,0.13,0.131C56.693,20.667,56.633,20.726,56.562,20.726 M56.562,19.941c-0.361,0-0.656,0.293-0.656,0.654
			s0.293,0.654,0.656,0.654c0.36,0,0.654-0.293,0.654-0.654S56.923,19.941,56.562,19.941"/>
		<path fill="#FFFFFF" d="M65.246,19.16c0.073,0,0.132,0.059,0.132,0.131c0,0.073-0.059,0.131-0.132,0.131s-0.13-0.059-0.13-0.131
			C65.115,19.218,65.173,19.16,65.246,19.16 M65.246,19.945c0.36,0,0.654-0.293,0.654-0.654c0-0.361-0.293-0.654-0.654-0.654
			s-0.654,0.293-0.654,0.654C64.592,19.652,64.886,19.945,65.246,19.945"/>
		<path fill="#FFFFFF" d="M34.216,20.232c0,0.289,0.235,0.524,0.524,0.524s0.524-0.235,0.524-0.524c0-0.288-0.235-0.524-0.524-0.524
			S34.216,19.944,34.216,20.232"/>
		<path fill="#FFFFFF" d="M44.367,21.766c0,0.289,0.235,0.524,0.524,0.524s0.524-0.235,0.524-0.524s-0.235-0.524-0.524-0.524
			C44.601,21.242,44.367,21.477,44.367,21.766"/>
		<path fill="#FFFFFF" d="M54.704,21.803c0.29,0,0.524-0.235,0.524-0.524c0-0.289-0.234-0.524-0.524-0.524
			c-0.288,0-0.524,0.235-0.524,0.524C54.181,21.568,54.417,21.803,54.704,21.803"/>
		<path fill="#FFFFFF" d="M63.913,19.975c0-0.288-0.236-0.524-0.524-0.524c-0.29,0-0.524,0.235-0.524,0.524
			c0,0.289,0.234,0.524,0.524,0.524C63.678,20.499,63.913,20.264,63.913,19.975"/>
		<path fill="#FFFFFF" d="M34.543,29.014c-0.351,0.298-0.656,0.701-0.892,1.174c-0.165,0.37-0.298,0.735-0.389,1.141
			c0.236,0.222,0.384,0.546,0.384,0.896c0,0.406-0.199,0.77-0.504,0.991c0.041,0.461,0.132,0.9,0.265,1.301
			c0.573,0.101,1.008,0.601,1.008,1.202c0,0.141-0.025,0.277-0.07,0.402c0.235,0.239,0.496,0.424,0.774,0.545
			c0.213-0.178,0.486-0.285,0.784-0.285c0.299,0,0.572,0.107,0.784,0.285c0.26-0.113,0.504-0.282,0.727-0.498
			c-0.056-0.139-0.087-0.29-0.087-0.449c0-0.625,0.47-1.14,1.076-1.212c0.117-0.354,0.201-0.736,0.247-1.136
			c-0.458-0.176-0.784-0.619-0.784-1.139c0-0.461,0.256-0.881,0.634-1.088c-0.088-0.336-0.204-0.587-0.344-0.957
			c-0.236-0.473-0.541-0.876-0.892-1.174c1.422-0.547,2.433-1.926,2.433-3.541c0-2.095-1.699-3.793-3.794-3.793
			s-3.794,1.699-3.794,3.793C32.11,27.088,33.121,28.467,34.543,29.014"/>
		<path fill="#FFFFFF" d="M39.783,30.188h-0.019h-0.41c0.113,0.37,0.207,0.615,0.279,0.934c0.401,0.2,0.679,0.623,0.679,1.102
			c0-0.479-0.277-0.901-0.679-1.101c0.401,0.199,0.676,0.628,0.679,1.105c0,0.002,0,0.004,0,0.006c0,0.419-0.212,0.79-0.534,1.01
			c-0.004,0.059-0.01,0.084-0.016,0.177c-0.055,0.554-0.165,1.006-0.321,1.463l0,0c0,0.001-0.001,0.001-0.001,0.001
			c0.205,0.219,0.332,0.512,0.332,0.835v0.001c0,0.675-0.545,1.221-1.219,1.221c-0.11,0-0.216-0.016-0.319-0.044
			c-0.333,0.336-0.707,0.601-1.11,0.781c-0.039,0.638-0.569,1.144-1.217,1.144s-1.177-0.507-1.217-1.144
			c-0.357-0.161-0.692-0.386-0.995-0.671c-0.044-0.041-0.086-0.082-0.128-0.124c-0.117,0.038-0.241,0.058-0.37,0.058
			c-0.674,0-1.221-0.547-1.221-1.221c0-0.349,0.147-0.662,0.381-0.884c-0.149-0.446-0.253-0.924-0.305-1.425
			c-0.001-0.005-0.001-0.011-0.002-0.016c-0.489-0.159-0.842-0.618-0.842-1.16c0-0.599,0.43-1.113,0.999-1.218
			c0.007-0.026,0.013-0.051,0.02-0.077c0.064-0.253,0.143-0.499,0.234-0.75h-0.411c-0.633,0-1.127,0.141-1.513,0.36
			c-0.256,0.09-0.493,0.246-0.683,0.466l-8.313,9.624l-0.661-0.595c-0.512-0.46-1.219-0.563-1.819-0.324l-2.353-2.118l-1.04,1.155
			l2.352,2.118c-0.173,0.621,0.001,1.315,0.513,1.775l4.324,3.893l2.346-2.606l-1.262-1.136l5.208-6.033V48.84h0.982l-1.896,5.356
			h1.181l-1.289,2.21c-0.296,0.508-0.364,1.116-0.189,1.677l1.824,5.82c0.28,0.896,1.106,1.468,1.997,1.468
			c0.207,0,0.418-0.032,0.626-0.097c1.103-0.346,1.717-1.521,1.372-2.623l-1.548-4.938l2.051-3.519h0.936l0.971-2.281v2.281h0.554
			v10.926c0,1.156,0.922,2.093,2.078,2.093c1.156,0,2.078-0.938,2.078-2.093V54.195h1.108v-5.356h0.647V33.42h0.355l1.679-3.232
			C44.665,30.188,39.783,30.188,39.783,30.188z"/>
	</g>
</g>
</svg>
